#!OML:ASF F:\VICON\USERDATA\INSTALL\rory3\rory3.ASF
:FULLY-SPECIFIED
:DEGREES
862
root -0.60443 18.1386 3.02601 -0.223347 -24.8267 -1.68043
lowerback 6.96739 -4.82715 -7.91328
upperback 0.094117 -7.03985 0.640022
thorax -2.76548 -3.39804 5.66826
lowerneck -13.4537 1.7454 -4.67402
upperneck 16.3963 1.29606 10.939
head 7.11487 1.30079 4.49129
rclavicle -2.50966e-015 0
rhumerus -23.3933 14.4079 -27.0356
rradius 92.0211
rwrist 20.081
rhand -42.9803 15.6172
rfingers 7.12502
rthumb -15.8394 -13.7549
lclavicle -2.50966e-015 0
lhumerus 41.8938 -33.3695 24.8282
lradius 75.1354
lwrist -0.599478
lhand -28.8517 10.2787
lfingers 7.12502
lthumb -2.20851 40.247
rfemur -18.251 31.3008 6.76708
rtibia 27.7144
rfoot -14.2418 2.3952
rtoes -4.75134
lfemur 2.55424 0.637503 -6.76006
ltibia 24.2713
lfoot -23.2445 25.4807
ltoes -10.1146
863
root -0.596999 18.1398 3.01991 -0.489067 -24.3489 -1.50142
lowerback 7.48 -4.35045 -7.59555
upperback -0.109758 -6.4388 0.449435
thorax -3.41376 -3.06627 5.32604
lowerneck -13.085 1.76752 -4.80112
upperneck 16.2604 1.33986 11.0413
head 6.99898 1.31322 4.53819
rclavicle 1.95057e-015 -1.27222e-014
rhumerus -23.1612 14.7117 -27.2125
rradius 91.9378
rwrist 20.4097
rhand -43.0452 15.2484
rfingers 7.12502
rthumb -15.9019 -14.1187
lclavicle 1.95057e-015 -1.27222e-014
lhumerus 41.4237 -33.4815 24.9417
lradius 75.1272
lwrist -0.869529
lhand -29.0277 10.1578
lfingers 7.12502
lthumb -2.37849 40.1243
rfemur -17.8359 30.9869 6.75553
rtibia 27.7096
rfoot -14.245 2.31705
rtoes -4.21981
lfemur 2.62673 0.311024 -6.91937
ltibia 24.2029
lfoot -23.1016 25.3369
ltoes -10.3541
864
root -0.591115 18.1425 3.01336 -0.690615 -24.0633 -1.41025
lowerback 7.39707 -3.84964 -7.31193
upperback 0.0895991 -5.73737 0.328932
thorax -3.29805 -2.73406 4.97597
lowerneck -13.2155 1.78595 -4.90652
upperneck 16.0836 1.41058 11.0406
head 6.95801 1.34392 4.55961
rclavicle 3.24267e-014 -2.8625e-014
rhumerus -22.5008 14.544 -27.2852
rradius 91.7356
rwrist 20.507
rhand -43.1327 15.4252
rfingers 7.12502
rthumb -15.9862 -13.9351
lclavicle 3.24267e-014 -2.8625e-014
lhumerus 41.3437 -33.0568 24.8769
lradius 75.0668
lwrist -1.09155
lhand -29.0599 10.3215
lfingers 7.12502
lthumb -2.40952 40.2876
rfemur -17.5712 30.8703 6.78715
rtibia 27.7306
rfoot -14.2378 2.25616
rtoes -3.95367
lfemur 2.76215 -0.0137027 -7.0371
ltibia 24.0663
lfoot -23.0173 25.3722
ltoes -10.427
865
root -0.588051 18.1434 3.00679 -0.911337 -23.9029 -1.39616
lowerback 7.48434 -3.35712 -6.88377
upperback 0.187412 -5.05402 0.193397
thorax -3.38566 -2.40085 4.5489
lowerneck -13.2727 1.84435 -4.91538
upperneck 16.052 1.52557 10.9088
head 6.94893 1.38996 4.52794
rclavicle 9.56651e-015 1.27222e-014
rhumerus -21.8554 14.5586 -27.3969
rradius 91.5921
rwrist 20.6396
rhand -43.1504 15.3185
rfingers 7.12502
rthumb -16.0032 -14.0405
lclavicle 9.56651e-015 1.27222e-014
lhumerus 41.1648 -32.7557 24.7492
lradius 74.9531
lwrist -1.23855
lhand -28.8337 10.2133
lfingers 7.12502
lthumb -2.19111 40.1818
rfemur -17.2873 30.8607 6.93602
rtibia 27.7648
rfoot -14.2537 2.14888
rtoes -3.86248
lfemur 3.00558 -0.262938 -7.07141
ltibia 23.8991
lfoot -22.9663 25.4556
ltoes -10.3477
866
root -0.585805 18.1426 2.99797 -1.17122 -23.7215 -1.23854
lowerback 7.59456 -2.90573 -6.52347
upperback 0.25055 -4.43815 -0.0470735
thorax -3.50474 -2.09899 4.05358
lowerneck -13.164 1.92032 -4.80632
upperneck 15.8917 1.65197 10.7339
head 6.87052 1.43907 4.45506
rclavicle 3.59924e-014 7.15625e-015
rhumerus -21.2572 14.5259 -27.651
rradius 91.4924
rwrist 20.9964
rhand -43.0781 15.2205
rfingers 7.12502
rthumb -15.9336 -14.1441
lclavicle 3.59924e-014 7.15625e-015
lhumerus 41.0524 -32.4937 24.3905
lradius 74.8656
lwrist -1.24682
lhand -28.4305 10.0268
lfingers 7.12502
lthumb -1.80173 39.9989
rfemur -16.9978 30.7831 6.94201
rtibia 27.7708
rfoot -14.3048 1.97979
rtoes -4.17896
lfemur 3.19033 -0.404447 -7.2216
ltibia 23.7601
lfoot -22.7916 25.4768
ltoes -10.5546
